<svg xmlns="http://www.w3.org/2000/svg" width="512" height="512" viewBox="0 0 512 512">
  <g fill="none" fill-rule="evenodd">
    <circle cx="256" cy="256" r="256" fill="#40A6EB"/>
    <path fill="#000000" fill-rule="nonzero" d="M284.827869,219.550173 L258.04918,219.550173 L258.04918,121.972318 C258.04918,54.6435986 208.87377,0 148.5,0 C88.1262295,0 38.9508197,54.6435986 38.9508197,121.972318 L38.9508197,219.550173 L12.1721311,219.550173 C5.3557377,219.550173 0,224.916955 0,231.747405 C0,238.577855 5.3557377,243.944637 12.1721311,243.944637 L107.114754,243.944637 C109.062295,264.923875 126.590164,282 148.5,282 C170.409836,282 187.937705,265.411765 189.885246,243.944637 L284.827869,243.944637 C291.644262,243.944637 297,238.577855 297,231.747405 C297,224.916955 291.644262,219.550173 284.827869,219.550173 Z" transform="translate(108 115)"/>
  </g>
</svg>
